<svg width="180" height="180" viewBox="0 0 180 180" fill="none" xmlns="http://www.w3.org/2000/svg">
<ellipse opacity="0.1" cx="90" cy="174.167" rx="89.7767" ry="5.3866" fill="#8E8E93"/>
<path fill-rule="evenodd" clip-rule="evenodd" d="M129.715 29.3785C131.262 27.273 134.223 26.8201 136.328 28.3668C138.434 29.9136 138.887 32.8743 137.34 34.9798L131.578 42.8225C130.032 44.928 127.071 45.3809 124.965 43.8341C122.86 42.2874 122.407 39.3267 123.954 37.2212L129.715 29.3785ZM134.202 31.2609C133.695 30.8883 132.982 30.9974 132.609 31.5046L126.848 39.3472C126.475 39.8544 126.584 40.5675 127.091 40.9401C127.599 41.3127 128.312 41.2036 128.684 40.6964L134.446 32.8538C134.818 32.3466 134.709 31.6335 134.202 31.2609ZM44.4084 75.8473C44.4084 52.8491 63.0521 34.2054 86.0502 34.2054C109.048 34.2054 127.692 52.8491 127.692 75.8473C127.692 98.8454 109.048 117.489 86.0502 117.489C63.0521 117.489 44.4084 98.8454 44.4084 75.8473ZM86.0502 30.6144C61.0688 30.6144 40.8173 50.8658 40.8173 75.8473C40.8173 100.829 61.0688 121.08 86.0502 121.08C94.2626 121.08 101.964 118.892 108.602 115.066L114.473 120.937C114.306 123.432 115.175 125.984 117.083 127.891L135.199 146.007C138.705 149.513 144.389 149.513 147.895 146.007L151.801 142.101C155.307 138.595 155.307 132.911 151.801 129.405L133.685 111.289C131.778 109.381 129.225 108.511 126.729 108.68L121.718 103.668C127.712 95.9951 131.283 86.3383 131.283 75.8473C131.283 50.8658 111.032 30.6144 86.0502 30.6144ZM122.837 109.866L119.389 106.418C117.093 108.921 114.518 111.164 111.715 113.1L115.659 117.044C116.042 116.383 116.517 115.761 117.083 115.195L120.989 111.289C121.554 110.723 122.176 110.249 122.837 109.866ZM106.811 70.4109C107.698 69.9674 108.057 68.8889 107.614 68.0019C107.17 67.115 106.092 66.7555 105.205 67.1989L91.1169 74.2428C90.5086 74.547 90.1243 75.1687 90.1243 75.8488C90.1243 76.5289 90.5086 77.1506 91.1169 77.4548L105.205 84.4987C106.092 84.9422 107.17 84.5827 107.614 83.6957C108.057 82.8087 107.698 81.7302 106.811 81.2867L95.9348 75.8488L106.811 70.4109ZM64.485 68.0019C64.0415 68.8889 64.401 69.9674 65.288 70.4109L76.1638 75.8488L65.288 81.2867C64.401 81.7302 64.0415 82.8087 64.485 83.6957C64.9285 84.5827 66.007 84.9422 66.894 84.4987L80.9818 77.4548C81.5901 77.1506 81.9743 76.5289 81.9743 75.8488C81.9743 75.1687 81.5901 74.547 80.9818 74.2428L66.894 67.1989C66.007 66.7555 64.9285 67.115 64.485 68.0019ZM56.1477 75.8468C56.1477 59.3324 69.5353 45.9448 86.0497 45.9448C102.564 45.9448 115.952 59.3324 115.952 75.8468C115.952 92.3612 102.564 105.749 86.0497 105.749C69.5353 105.749 56.1477 92.3612 56.1477 75.8468ZM86.0497 42.3537C67.552 42.3537 52.5567 57.3491 52.5567 75.8468C52.5567 94.3445 67.552 109.34 86.0497 109.34C104.547 109.34 119.543 94.3445 119.543 75.8468C119.543 57.3491 104.547 42.3537 86.0497 42.3537ZM149.656 46.7691C148.862 44.2802 146.2 42.9064 143.711 43.7006L134.44 46.6589C131.951 47.4531 130.578 50.1147 131.372 52.6036C132.166 55.0925 134.828 56.4664 137.317 55.6722L146.587 52.7138C149.076 51.9196 150.45 49.2581 149.656 46.7691ZM144.803 47.1217C145.402 46.9304 146.044 47.2613 146.235 47.8608C146.426 48.4603 146.095 49.1014 145.496 49.2927L136.225 52.251C135.625 52.4423 134.984 52.1114 134.793 51.5119C134.602 50.9124 134.933 50.2713 135.532 50.08L144.803 47.1217ZM28.5696 102.569C26.0614 103.3 24.6205 105.926 25.3514 108.434C26.0823 110.943 28.7082 112.383 31.2165 111.653L40.5593 108.93C43.0676 108.199 44.5084 105.573 43.7775 103.065C43.0466 100.557 40.4207 99.116 37.9125 99.8469L28.5696 102.569ZM28.7991 107.43C28.6231 106.826 28.9701 106.193 29.5743 106.017L38.9171 103.295C39.5213 103.118 40.1538 103.466 40.3298 104.07C40.5059 104.674 40.1588 105.306 39.5547 105.482L30.2118 108.205C29.6076 108.381 28.9752 108.034 28.7991 107.43ZM38.0679 127.266C36.0023 125.666 35.6245 122.695 37.2241 120.629L43.1824 112.935C44.782 110.87 47.7533 110.492 49.8189 112.091C51.8845 113.691 52.2623 116.662 50.6627 118.728L44.7044 126.422C43.1048 128.488 40.1336 128.866 38.0679 127.266ZM40.0634 122.828C39.6781 123.326 39.7691 124.041 40.2666 124.427C40.7642 124.812 41.4799 124.721 41.8652 124.223L47.8235 116.529C48.2087 116.032 48.1177 115.316 47.6202 114.931C47.1227 114.545 46.407 114.636 46.0217 115.134L40.0634 122.828Z" fill="#8E8E93"/>
</svg>
